<svg id="Layer_1" data-name="Layer 1" xmlns="http://www.w3.org/2000/svg" xmlns:xlink="http://www.w3.org/1999/xlink" viewBox="0 0 1233 1265"><defs><style>.cls-1,.cls-3{fill:none;stroke:#000;stroke-miterlimit:10;}.cls-1{stroke-width:0.1px;}.cls-2{clip-path:url(#clip-path);}.cls-3{stroke-width:0.2px;}</style><clipPath id="clip-path"><rect class="cls-1" x="-0.5" y="-3.5" width="1233" height="1269"/></clipPath></defs><title>Blueprints NOVAL</title><g class="cls-2"><line class="cls-3" x1="353.5" y1="74.5" x2="353.5" y2="1265.5"/><line class="cls-3" x1="458" y1="74.5" x2="458" y2="1265.5"/><line class="cls-3" x1="442" y1="74.5" x2="442" y2="1265.5"/><line class="cls-3" x1="370" y1="74.5" x2="370" y2="1265.5"/><line class="cls-3" x1="539" y1="74.5" x2="539" y2="1265.5"/><line class="cls-3" x1="658" y1="74.5" x2="658" y2="1265.5"/><line class="cls-3" x1="750" y1="74.5" x2="750" y2="1265.5"/><line class="cls-3" x1="829" y1="74.5" x2="829" y2="1265.5"/><line class="cls-3" x1="845" y1="74.5" x2="845" y2="1265.5"/><line class="cls-3" x1="891" y1="74.5" x2="891" y2="1265.5"/><line class="cls-3" x1="-261" y1="68" x2="931.28" y2="1094.55"/><line class="cls-3" x1="-249" y1="56" x2="943.28" y2="1082.55"/><line class="cls-3" x1="275.46" y1="-145.89" x2="930.82" y2="1284.44"/><line class="cls-3" x1="292.46" y1="-145.89" x2="947.82" y2="1284.44"/><line class="cls-3" x1="419.46" y1="-145.89" x2="1074.82" y2="1284.44"/><line class="cls-3" x1="402.46" y1="-145.89" x2="1057.82" y2="1284.44"/><circle class="cls-3" cx="539" cy="631" r="40"/><circle class="cls-3" cx="539" cy="631" r="55"/><circle class="cls-3" cx="539" cy="631" r="81"/><circle class="cls-3" cx="539" cy="631" r="185"/><line class="cls-3" x1="1079.82" y1="-145.89" x2="424.46" y2="1284.44"/><line class="cls-3" x1="1091.32" y1="-133.39" x2="435.96" y2="1296.94"/><line class="cls-3" x1="1039.82" y1="-145.89" x2="384.46" y2="1284.44"/><line class="cls-3" x1="1021.82" y1="-145.89" x2="366.46" y2="1284.44"/><line class="cls-3" x1="1190.5" y1="687" x2="-0.5" y2="687"/><line class="cls-3" x1="1190.5" y1="745" x2="-0.5" y2="745"/><line class="cls-3" x1="1190.5" y1="816" x2="-0.5" y2="816"/><line class="cls-3" x1="1190.5" y1="670" x2="-0.5" y2="670"/><line class="cls-3" x1="1190.5" y1="660" x2="-0.5" y2="660"/><line class="cls-3" x1="1190.5" y1="643" x2="-0.5" y2="643"/><line class="cls-3" x1="1190.5" y1="575" x2="-0.5" y2="575"/><line class="cls-3" x1="1190.5" y1="516" x2="-0.5" y2="516"/><line class="cls-3" x1="1190.5" y1="446" x2="-0.5" y2="446"/><line class="cls-3" x1="1190.5" y1="611" x2="-0.5" y2="611"/></g><rect class="cls-1" x="-0.5" y="-3.5" width="1233" height="1269"/></svg>